<svg  xmlns="http://www.w3.org/2000/svg">
    <symbol id="price" viewBox="0 1 511 511.99988">
        <path d="m152.496094 492c0 11.046875-8.953125 20-20 20-44.109375 0-79.996094-35.886719-79.996094-79.996094v-195.675781l-17.875 17.835937c-3.902344 3.898438-9.015625 5.84375-14.125 5.84375-5.125 0-10.25-1.957031-14.15625-5.871093-7.804688-7.816407-7.789062-20.480469.027344-28.285157l210.28125-209.867187c.269531-.269531.546875-.527344.832031-.78125 22.839844-20.335937 57.226563-20.261719 79.976563.167969.289062.257812.570312.527344.84375.800781l153.886718 155.257813c7.773438 7.847656 7.71875 20.507812-.125 28.285156-7.847656 7.777344-20.511718 7.71875-28.285156-.125l-153.40625-154.773438c-7.464844-6.390625-18.449219-6.410156-25.9375-.050781l-152.238281 151.9375c.183593 1.078125.296875 2.179687.296875 3.308594v231.992187c0 22.054688 17.945312 40 40 40 11.046875-.003906 20 8.953125 20 19.996094zm359.988281-194.992188v154.992188c0 34.207031-40.839844 60-94.996094 60-31.15625 0-57.898437-8.535156-75-22.296875-17.101562 13.761719-43.84375 22.296875-74.996093 22.296875-54.15625 0-94.996094-25.792969-94.996094-60v-77.996094c0-.089844.011718-.179687.011718-.269531-.003906-.246094-.011718-.484375-.011718-.730469 0-34.203125 40.839844-59.996094 94.996094-59.996094 19.914062 0 39.097656 3.84375 54.996093 10.902344v-23.902344c0-.414062.015625-.820312.039063-1.226562-.023438-.589844-.039063-1.179688-.039063-1.773438 0-34.207031 40.839844-60 95-60 54.15625 0 94.996094 25.792969 94.996094 60zm-189.996094 154.992188v-77.996094c0-5.398437-18.910156-21-54.996093-21-36.089844 0-55 14.859375-55 20s18.910156 20 55 20c11.046874 0 20 8.953125 20 20 0 11.042969-8.953126 20-20 20-20.824219 0-39.675782-3.820312-55-10.457031v29.453125c0 5.140625 18.910156 20 55 20 36.085937 0 54.996093-14.855469 54.996093-20zm149.996094-154.992188c0-5.140624-18.910156-20-54.996094-20-36.089843 0-55 14.859376-55 20 0 5.136719 18.910157 20 55 20 11.042969 0 19.996094 8.953126 19.996094 19.996094 0 11.046875-8.953125 20-19.996094 20-20.824219 0-39.679687-3.8125-55-10.449218v26.449218c0 5.140625 18.910157 20 55 20 11.042969 0 19.996094 8.953125 19.996094 20 0 11.042969-8.953125 20-19.996094 20-20.828125 0-39.679687-3.820312-55-10.457031v29.453125c0 5.140625 18.910157 20 55 20 36.085938 0 54.996094-14.859375 54.996094-20zm0 0"/>
    </symbol>
    <symbol id="surface" viewBox="0 0 512 512.001">
        <path d="m497.355469 401.644531c19.496093 19.496094 19.496093 51.214844 0 70.710938-.027344.03125-.058594.058593-.089844.089843l-34.210937 33.785157c-3.898438 3.847656-8.976563 5.769531-14.050782 5.769531-5.164062 0-10.320312-1.984375-14.234375-5.945312-7.757812-7.859376-7.679687-20.523438.179688-28.285157l20.015625-19.769531h-320.964844c-44.113281 0-80-35.886719-80-80v-321.449219l-19.953125 19.6875c-7.863281 7.757813-20.527344 7.671875-28.285156-.191406-7.757813-7.863281-7.671875-20.527344.191406-28.285156l33.789063-33.332031c19.441406-19.179688 51.074218-19.179688 70.515624 0l33.789063 33.332031c7.863281 7.757812 7.949219 20.421875.191406 28.285156-3.914062 3.964844-9.074219 5.953125-14.238281 5.953125-5.074219 0-10.148438-1.917969-14.046875-5.761719l-21.953125-21.660156v323.421875c0 22.054688 17.945312 40 40 40h322.992188l-22.042969-21.769531c-7.859375-7.761719-7.941407-20.425781-.179688-28.285157 7.761719-7.855468 20.425781-7.9375 28.285157-.175781l34.210937 33.785157c.03125.03125.0625.058593.089844.089843zm-45.355469-401.644531h-259c-11.074219 0-20.039062 9-20 20.074219.042969 11.015625 8.984375 19.925781 20 19.925781h259c11.046875 0 20 8.953125 20 20v260c0 11.015625 8.910156 19.960938 19.925781 20 11.074219.039062 20.074219-8.925781 20.074219-20v-260c0-33.136719-26.863281-60-60-60zm-158 342.890625c11.046875 0 20-8.953125 20-20v-89.015625c0-30.328125-24.671875-55-55-55-13.285156 0-25.484375 4.734375-35 12.605469-9.515625-7.871094-21.714844-12.605469-35-12.605469-7.628906 0-14.902344 1.566406-21.511719 4.386719-3.558593-3.257813-8.285156-5.261719-13.488281-5.261719-11.046875 0-20 8.953125-20 20v125c0 11.046875 8.953125 20 20 20s20-8.953125 20-20v-89.125c0-8.269531 6.730469-15 15-15s15 6.730469 15 15v89.125c0 11.046875 8.953125 20 20 20s20-8.953125 20-20v-89.125c0-8.269531 6.730469-15 15-15s15 6.730469 15 15v89.015625c0 11.046875 8.953125 20 20 20zm90.75-234.890625c-.105469 0-.207031.015625-.3125.015625-.101562 0-.203125-.015625-.308594-.015625-25.433594 0-46.128906 20.71875-46.128906 46.183594 0 11.042968 8.953125 20 20 20s20-8.957032 20-20c0-3.351563 2.808594-6.183594 6.128906-6.183594.105469 0 .207032-.015625.3125-.015625.101563 0 .203125.015625.308594.015625 3.183594 0 5.894531 2.601562 6.113281 5.769531-.394531 1.464844-3.460937 10.523438-22.625 31.605469-11.886719 13.070312-23.566406 23.714844-23.679687 23.816406-6.121094 5.554688-8.191406 14.304688-5.214844 22.011719 2.976562 7.710937 10.390625 12.796875 18.65625 12.796875h54c11.046875 0 20-8.953125 20-20s-8.953125-20-20-20h-6.878906c17.757812-20.90625 25.757812-36.464844 25.757812-49.816406 0-25.464844-20.695312-46.183594-46.128906-46.183594zm0 0"/>
    </symbol>
    <symbol id="pieces" viewBox="0 0 512 512">
        <path d="m512 80v170c0 44.113281-35.886719 80-80 80h-4c-11.046875 0-20-8.953125-20-20s8.953125-20 20-20h4c22.054688 0 40-17.945312 40-40v-87h-53v10c0 11.046875-8.953125 20-20 20s-20-8.953125-20-20v-60c0-11.046875 8.953125-20 20-20s20 8.953125 20 20v10h53v-43c0-22.054688-17.945312-40-40-40h-142v83h10c11.046875 0 20 8.953125 20 20s-8.953125 20-20 20h-60c-11.046875 0-20-8.953125-20-20s8.953125-20 20-20h10v-83h-55c-11.046875 0-20-8.953125-20-20s8.953125-20 20-20h237c44.113281 0 80 35.886719 80 80zm-185 210h-37v-38c0-11.046875-8.953125-20-20-20s-20 8.953125-20 20v200c0 11.027344-8.972656 20-20 20h-33c-11.046875 0-20 8.953125-20 20s8.953125 20 20 20h33c33.085938 0 60-26.914062 60-60v-122h37c11.046875 0 20-8.953125 20-20s-8.953125-20-20-20zm-146-48c0-11.046875-8.953125-20-20-20s-20 8.953125-20 20v11h-101v-173c0-22.054688 17.945312-40 40-40h15c11.046875 0 20-8.953125 20-20s-8.953125-20-20-20h-15c-44.113281 0-80 35.886719-80 80v352c0 44.113281 35.886719 80 80 80h16c11.046875 0 20-8.953125 20-20s-8.953125-20-20-20h-16c-22.054688 0-40-17.945312-40-40v-139h101v9c0 11.046875 8.953125 20 20 20s20-8.953125 20-20zm0 0"/>
    </symbol>
    <symbol id="check" viewBox="0 0 512 512">
        <path d="M506.231,75.508c-7.689-7.69-20.158-7.69-27.849,0l-319.21,319.211L33.617,269.163c-7.689-7.691-20.158-7.691-27.849,0    c-7.69,7.69-7.69,20.158,0,27.849l139.481,139.481c7.687,7.687,20.16,7.689,27.849,0l333.133-333.136    C513.921,95.666,513.921,83.198,506.231,75.508z"/>
    </symbol>
    <symbol id="menu" viewBox="0 0 512 512">
        <path d="M12.03,120.303h360.909c6.641,0,12.03-5.39,12.03-12.03c0-6.641-5.39-12.03-12.03-12.03H12.03
			c-6.641,0-12.03,5.39-12.03,12.03C0,114.913,5.39,120.303,12.03,120.303z"/>
        <path d="M372.939,180.455H12.03c-6.641,0-12.03,5.39-12.03,12.03s5.39,12.03,12.03,12.03h360.909c6.641,0,12.03-5.39,12.03-12.03
			S379.58,180.455,372.939,180.455z"/>
        <path d="M372.939,264.667H132.333c-6.641,0-12.03,5.39-12.03,12.03c0,6.641,5.39,12.03,12.03,12.03h240.606
			c6.641,0,12.03-5.39,12.03-12.03C384.97,270.056,379.58,264.667,372.939,264.667z"/>
    </symbol>
    <symbol id="apps" viewBox="0 0 295 295">
        <path d="M33.319,0C15.676,0,1.323,14.353,1.323,31.995c0,3.313,2.687,6,6,6s6-2.687,6-6C13.323,20.97,22.293,12,33.319,12
		c11.026,0,19.996,8.97,19.996,19.995s-8.97,19.996-19.996,19.996c-3.313,0-6,2.687-6,6s2.687,6,6,6
		c17.643,0,31.996-14.354,31.996-31.996S50.961,0,33.319,0z"/>
        <path d="M147.421,0c-17.643,0-31.996,14.353-31.996,31.995s14.354,31.996,31.996,31.996s31.996-14.354,31.996-31.996
		S165.063,0,147.421,0z M147.421,51.991c-11.026,0-19.996-8.97-19.996-19.996c0-11.025,8.97-19.995,19.996-19.995
		s19.996,8.97,19.996,19.995C167.417,43.021,158.447,51.991,147.421,51.991z"/>
        <path d="M261.523,63.991c17.643,0,31.996-14.354,31.996-31.996S279.166,0,261.523,0s-31.996,14.353-31.996,31.995
		S243.88,63.991,261.523,63.991z M261.523,12c11.025,0,19.996,8.97,19.996,19.995c0,11.026-8.97,19.996-19.996,19.996
		c-11.026,0-19.996-8.97-19.996-19.996C241.527,20.97,250.497,12,261.523,12z"/>
        <path d="M33.319,115.425c-17.643,0-31.996,14.354-31.996,31.996s14.353,31.996,31.996,31.996s31.996-14.354,31.996-31.996
		S50.961,115.425,33.319,115.425z M33.319,167.417c-11.025,0-19.996-8.97-19.996-19.996s8.97-19.996,19.996-19.996
		c11.026,0,19.996,8.97,19.996,19.996S44.345,167.417,33.319,167.417z"/>
        <path d="M173.417,141.421c-3.313,0-6,2.687-6,6c0,11.025-8.97,19.996-19.996,19.996s-19.996-8.971-19.996-19.996
		s8.97-19.996,19.996-19.996c3.313,0,6-2.687,6-6s-2.687-6-6-6c-17.643,0-31.996,14.354-31.996,31.996s14.354,31.996,31.996,31.996
		s31.996-14.354,31.996-31.996C179.417,144.107,176.73,141.421,173.417,141.421z"/>
        <path d="M261.523,115.425c-17.643,0-31.996,14.354-31.996,31.996s14.354,31.996,31.996,31.996s31.996-14.354,31.996-31.996
		S279.166,115.425,261.523,115.425z M261.523,167.417c-11.026,0-19.996-8.97-19.996-19.996s8.97-19.996,19.996-19.996
		c11.025,0,19.996,8.97,19.996,19.996S272.548,167.417,261.523,167.417z"/>
        <path d="M33.319,230.851c-17.643,0-31.996,14.354-31.996,31.996s14.353,31.995,31.996,31.995s31.996-14.353,31.996-31.995
		S50.961,230.851,33.319,230.851z M33.319,282.842c-11.025,0-19.996-8.97-19.996-19.995c0-11.026,8.97-19.996,19.996-19.996
		c11.026,0,19.996,8.97,19.996,19.996C53.315,273.872,44.345,282.842,33.319,282.842z"/>
        <path d="M147.421,230.851c-17.643,0-31.996,14.354-31.996,31.996s14.354,31.995,31.996,31.995s31.996-14.353,31.996-31.995
		S165.063,230.851,147.421,230.851z M147.421,282.842c-11.026,0-19.996-8.97-19.996-19.995c0-11.026,8.97-19.996,19.996-19.996
		s19.996,8.97,19.996,19.996C167.417,273.872,158.447,282.842,147.421,282.842z"/>
        <path d="M261.523,230.851c-17.643,0-31.996,14.354-31.996,31.996s14.354,31.995,31.996,31.995s31.996-14.353,31.996-31.995
		S279.166,230.851,261.523,230.851z M261.523,282.842c-11.026,0-19.996-8.97-19.996-19.995c0-11.026,8.97-19.996,19.996-19.996
		c11.025,0,19.996,8.97,19.996,19.996C281.519,273.872,272.548,282.842,261.523,282.842z"/>
    </symbol>
</svg>